# xmcd
#
# Track frame offsets:
#	150
#	17129
#	36425
#	53148
#	70950
#	93849
#	110854
#	124443
#	140070
#	154703
#	165469
#	182695
#	195792
#	210792
#	225569
#	238836
#	258189
#	275141
#	292758
#	307913
#
# Disc length: 4305 seconds
#
# Revision: 0
# Processed by: cddbd v1.5.2PL0 Copyright (c) Steve Scherf et al.
# Submitted via: EZCDAudioConverter 2.1.7.1
#
DISCID=1710cf14
DTITLE=Giorgio - Son Of My Father
DYEAR=1900
DGENRE=
TTITLE0=Son Of My Father
TTITLE1=Automation
TTITLE2=London Traffic
TTITLE3=Underdog
TTITLE4=Spanish Disaster
TTITLE5=Lord Release Me
TTITLE6=Pauline
TTITLE7=Watch Your Step
TTITLE8=That's How I See Her
TTITLE9=Tears
TTITLE10=Today's A Tomorrow
TTITLE11=I'm Free Now
TTITLE12=Tu Sei Mio Padre [Italian Version Of 'Son Of My Father']
TTITLE13=Non Ci Sto [Italian Version Of 'Underdog']
TTITLE14=Take It, Shake It, Break My Heart
TTITLE15=Everybody Join Hands
TTITLE16=Son Of My Father (Part 1) [Mono]
TTITLE17=Underdog [Mono]
TTITLE18=Watch Your Step [Mono]
TTITLE19=Son Of My Father (Part 2) [Instrumental, Mono]
EXTD=
EXTT0=
EXTT1=
EXTT2=
EXTT3=
EXTT4=
EXTT5=
EXTT6=
EXTT7=
EXTT8=
EXTT9=
EXTT10=
EXTT11=
EXTT12=
EXTT13=
EXTT14=
EXTT15=
EXTT16=
EXTT17=
EXTT18=
EXTT19=
PLAYORDER=
